<svg width="30" height="30" viewBox="0 0 30 30" fill="none" xmlns="http://www.w3.org/2000/svg">
<path d="M24.375 12.1875C24.375 14.877 23.502 17.3613 22.0312 19.377L29.4492 26.8008C30.1816 27.5332 30.1816 28.7227 29.4492 29.4551C28.7168 30.1875 27.5273 30.1875 26.7949 29.4551L19.377 22.0313C17.3613 23.5078 14.877 24.375 12.1875 24.375C5.45508 24.375 0 18.9199 0 12.1875C0 5.45508 5.45508 0 12.1875 0C18.9199 0 24.375 5.45508 24.375 12.1875ZM13.3594 6.09375C13.3594 5.44922 12.832 4.92188 12.1875 4.92188C11.543 4.92188 11.0156 5.44922 11.0156 6.09375V6.91406C10.5703 7.01367 10.125 7.17188 9.71484 7.41211C8.90039 7.89844 8.19727 8.74805 8.20312 9.98438C8.20898 11.1738 8.90625 11.9238 9.65039 12.3691C10.2949 12.7559 11.0977 13.002 11.7363 13.1895L11.8359 13.2188C12.5742 13.4414 13.1133 13.6172 13.4766 13.8457C13.7754 14.0332 13.8164 14.1621 13.8223 14.3262C13.8281 14.6191 13.7168 14.7949 13.4766 14.9414C13.1836 15.123 12.7207 15.2344 12.2227 15.2168C11.5723 15.1934 10.9629 14.9883 10.166 14.7188C10.0312 14.6719 9.89062 14.625 9.74414 14.5781C9.12891 14.373 8.4668 14.707 8.26172 15.3164C8.05664 15.9258 8.39062 16.5938 9 16.7988C9.11133 16.834 9.23438 16.875 9.35742 16.9219C9.84375 17.0918 10.4062 17.2852 11.0098 17.4141V18.2695C11.0098 18.9141 11.5371 19.4414 12.1816 19.4414C12.8262 19.4414 13.3535 18.9141 13.3535 18.2695V17.4609C13.8223 17.3613 14.291 17.1973 14.7129 16.9336C15.5508 16.4121 16.1836 15.5215 16.166 14.2969C16.1484 13.1074 15.4805 12.3398 14.7246 11.8594C14.0508 11.4375 13.207 11.1797 12.5508 10.9805L12.5098 10.9688C11.7598 10.7402 11.2266 10.5762 10.8516 10.3535C10.5469 10.1719 10.541 10.0664 10.541 9.96094C10.541 9.74414 10.623 9.58008 10.9043 9.41602C11.2207 9.22852 11.7012 9.11719 12.1641 9.12305C12.7266 9.12891 13.3477 9.25195 13.9922 9.42773C14.6191 9.5918 15.2578 9.22266 15.4277 8.5957C15.5977 7.96875 15.2227 7.33008 14.5957 7.16016C14.2148 7.06055 13.793 6.96094 13.3594 6.88477V6.07031V6.09375Z" fill="#01493E"/>
</svg>
