<svg width="28" height="30" viewBox="0 0 28 30" fill="none" xmlns="http://www.w3.org/2000/svg">
<path d="M20.923 0C18.3742 0 16.3077 2.06885 16.3077 4.61538C16.3077 7.69038 20.3461 11.8915 20.3461 16.1181H21.5C21.5011 11.8915 25.5384 7.81154 25.5384 4.61538C25.5384 2.06885 23.4719 0 20.923 0ZM20.923 2.23615C21.2356 2.23631 21.5451 2.29803 21.8339 2.41779C22.1226 2.53756 22.385 2.71302 22.6059 2.93417C22.8268 3.15531 23.002 3.41781 23.1215 3.70667C23.241 3.99553 23.3024 4.3051 23.3023 4.61769C23.3021 4.93029 23.2404 5.23979 23.1206 5.52854C23.0009 5.81728 22.8254 6.07961 22.6043 6.30054C22.3831 6.52147 22.1206 6.69668 21.8318 6.81617C21.5429 6.93565 21.2333 6.99707 20.9207 6.99692C20.2893 6.99662 19.6838 6.74547 19.2375 6.29874C18.7912 5.85201 18.5406 5.24628 18.5409 4.61481C18.5412 3.98334 18.7924 3.37785 19.2391 2.93155C19.6858 2.48525 20.2916 2.23585 20.923 2.23615ZM14 2.30769C6.36496 2.30769 0.153809 8.51885 0.153809 16.1538C0.153809 23.7888 6.36496 30 14 30C21.635 30 27.8461 23.7888 27.8461 16.1538C27.8461 13.8346 27.2715 11.6585 26.2596 9.735C26.1061 10.0396 25.9515 10.3292 25.7911 10.6373C25.4877 11.2235 25.168 11.8154 24.8888 12.4038C25.1773 13.2288 25.3757 14.1012 25.4657 15H23.9519C23.8688 15.3865 23.8077 15.75 23.8077 16.1181V17.3077H25.4669C25.3096 18.9342 24.8052 20.5081 23.9877 21.9231H20.6C20.8538 20.8408 21.0003 19.6442 21.1042 18.4258H18.8311C18.7222 19.6062 18.5176 20.7758 18.2196 21.9231H9.78035C9.39006 20.413 9.16032 18.866 9.09496 17.3077H18.0373V16.1181C18.0282 15.7414 17.9798 15.3667 17.893 15H9.09612C9.16148 13.4417 9.39121 11.8947 9.7815 10.3846H15.9477C15.5471 9.62901 15.1738 8.85929 14.8284 8.07692H10.5742C11.5284 5.89962 12.7896 4.61538 14 4.61538C14 3.81346 14.1442 3.06 14.3969 2.34346C14.2642 2.33885 14.1338 2.30769 14 2.30769ZM9.24035 5.66077C8.78105 6.42832 8.39475 7.23724 8.0865 8.07692H5.77881C6.77426 7.06553 7.94774 6.24644 9.24035 5.66077ZM4.01227 10.3846H7.39996C7.05082 11.9003 6.84568 13.4457 6.78727 15H2.53304C2.69031 13.3734 3.19474 11.7996 4.01227 10.3846ZM2.53304 17.3077H6.78842C6.8565 18.9519 7.06881 20.5038 7.40112 21.9231H4.01227C3.19474 20.5081 2.69031 18.9342 2.53304 17.3077ZM5.77881 24.2308H8.0865C8.41881 25.1262 8.80765 25.9304 9.24035 26.6469C7.94774 26.0613 6.77426 25.2422 5.77881 24.2308ZM10.5742 24.2308H17.4257C16.4715 26.4081 15.2103 27.6923 14 27.6923C12.7896 27.6923 11.5273 26.4081 10.5742 24.2308ZM19.9134 24.2308H22.2211C21.2257 25.2422 20.0522 26.0613 18.7596 26.6469C19.1923 25.9315 19.5811 25.1273 19.9134 24.2308Z" fill="#01493E"/>
</svg>
