<svg width="32" height="33" viewBox="0 0 32 33" fill="none" xmlns="http://www.w3.org/2000/svg">
<path d="M25.3438 0.708984C22.0488 0.708984 19.3965 3.36406 19.3965 6.65625C19.3965 9.95117 22.0488 12.6035 25.3438 12.6035C28.6387 12.6035 31.291 9.95117 31.291 6.65625C31.291 3.36406 28.6387 0.708984 25.3438 0.708984ZM28.1123 3.03389L29.1377 3.71611L24.3457 10.9014L20.5313 7.09375L21.4062 6.21875L24.1543 8.97363L28.1123 3.03389ZM18.8291 9.6709L10.7422 15.2695H0.1875V17.7305H10.7422L18.8291 23.3291C19.1777 22.5771 19.6563 21.8936 20.2305 21.3125L13.2852 16.5L20.2305 11.6875C19.6563 11.1064 19.1777 10.4229 18.8291 9.6709ZM25.3438 20.3965C22.0488 20.3965 19.3965 23.0488 19.3965 26.3438C19.3965 29.6387 22.0488 32.291 25.3438 32.291C28.6387 32.291 31.291 29.6387 31.291 26.3438C31.291 23.0488 28.6387 20.3965 25.3438 20.3965ZM22.5 22.625L25.3438 25.4688L28.1875 22.625L29.0625 23.5L26.2187 26.3438L29.0625 29.1875L28.1875 30.0625L25.3438 27.2187L22.5 30.0625L21.625 29.1875L24.4688 26.3438L21.625 23.5L22.5 22.625Z" fill="#01493E"/>
</svg>
