<svg width="40" height="40" viewBox="0 0 40 40" fill="none" xmlns="http://www.w3.org/2000/svg">
<path d="M13.3333 26.6667V20C13.3333 18.2319 14.0357 16.5362 15.286 15.286C16.5362 14.0357 18.2319 13.3333 20 13.3333C21.7681 13.3333 23.4638 14.0357 24.714 15.286C25.9643 16.5362 26.6667 18.2319 26.6667 20V26.6667M5 20H6.66667M20 5V6.66667M33.3333 20H35M9.33333 9.33333L10.5 10.5M30.6667 9.33333L29.5 10.5M10 28.3333C10 27.8913 10.1756 27.4674 10.4882 27.1548C10.8007 26.8423 11.2246 26.6667 11.6667 26.6667H28.3333C28.7754 26.6667 29.1993 26.8423 29.5118 27.1548C29.8244 27.4674 30 27.8913 30 28.3333V31.6667C30 32.1087 29.8244 32.5326 29.5118 32.8452C29.1993 33.1577 28.7754 33.3333 28.3333 33.3333H11.6667C11.2246 33.3333 10.8007 33.1577 10.4882 32.8452C10.1756 32.5326 10 32.1087 10 31.6667V28.3333Z" stroke="#01493E" stroke-width="2.5" stroke-linecap="round" stroke-linejoin="round"/>
</svg>
