<svg width="59" height="58" viewBox="0 0 59 58" fill="none" xmlns="http://www.w3.org/2000/svg">
<path fill-rule="evenodd" clip-rule="evenodd" d="M31.0065 56.6525C26.9587 58.0481 21.4866 57.1028 21.4866 57.1028C4.51812 54.2804 -4.0703 35.6141 1.8862 20.2331C2.33403 18.7206 2.84494 17.7357 3.54846 16.3577C4.252 14.9797 5.11845 13.8506 5.86395 12.6968C11.1686 4.88034 19.9933 0.114876 29.4001 0C32.8247 0.108044 35.9617 0.620102 38.805 1.46569C53.6423 6.37442 61.9873 22.3268 57.4957 37.4967C55.0018 45.9186 49.0671 52.3586 41.6998 55.7232C52.5169 47.2622 53.849 34.3811 53.9076 31.1911C54.189 15.8613 38.8126 3.47352 21.1452 10.6236C21.1452 10.6236 11.8608 14.9623 11.8608 24.4543C11.8608 29.3783 13.4366 37.6034 22.3645 39.9518C24.9424 40.6299 28.0704 40.9648 31.1654 39.6555C32.2737 39.1867 32.2041 37.7134 31.1516 37.1298L20.958 31.4773C18.9244 30.1403 21.9418 29.9564 24.3364 29.58C24.7618 29.5132 25.1815 29.4472 25.5712 29.3783L48.7689 25.6593C52.3082 24.8378 49.8147 38.5126 47.1063 43.0097C46.405 44.8158 40.6723 54.0015 31.0065 56.6525Z" fill="#0B3E36"/>
</svg>
